<svg xmlns="http://www.w3.org/2000/svg" version="1.1" xmlns:xlink="http://www.w3.org/1999/xlink" viewBox="0 0 200 200"><rect width="200" height="200" fill="url('#gradient')"></rect><defs><linearGradient id="gradient" gradientTransform="rotate(36 0.5 0.5)"><stop offset="0%" stop-color="#0c0c0c"></stop><stop offset="100%" stop-color="#733acf"></stop></linearGradient></defs><g><g fill="#ffffff" transform="matrix(2.7355298308103295,0,0,2.7355298308103295,37.066324578049134,119.45387431371456)" stroke="#3b3b3b" stroke-width="0.5"><path d="M8.87 0L6.36-5.02L4.50-5.02L4.50 0L1.07 0L1.07-14.22L6.67-14.22Q9.20-14.22 10.63-13.10Q12.05-11.97 12.05-9.92L12.05-9.92Q12.05-8.44 11.45-7.46Q10.85-6.48 9.57-5.88L9.57-5.88L12.54-0.15L12.54 0L8.87 0ZM4.50-11.57L4.50-7.67L6.67-7.67Q7.65-7.67 8.14-8.18Q8.63-8.69 8.63-9.61Q8.63-10.53 8.13-11.05Q7.64-11.57 6.67-11.57L6.67-11.57L4.50-11.57ZM26.00-14.22L26.00 0L22.59 0L17.55-8.85L17.55 0L14.12 0L14.12-14.22L17.55-14.22L22.58-5.37L22.58-14.22L26.00-14.22ZM36.26-4.81L39.67-4.81Q39.60-3.33 38.87-2.19Q38.13-1.05 36.81-0.43Q35.49 0.20 33.79 0.20L33.79 0.20Q30.99 0.20 29.38-1.63Q27.76-3.46 27.76-6.79L27.76-6.79L27.76-7.49Q27.76-9.58 28.49-11.15Q29.22-12.71 30.59-13.57Q31.95-14.42 33.75-14.42L33.75-14.42Q36.34-14.42 37.91-13.06Q39.48-11.70 39.70-9.31L39.70-9.31L36.28-9.31Q36.24-10.61 35.63-11.17Q35.01-11.74 33.75-11.74L33.75-11.74Q32.47-11.74 31.88-10.78Q31.28-9.82 31.25-7.72L31.25-7.72L31.25-6.72Q31.25-4.44 31.82-3.47Q32.39-2.49 33.79-2.49L33.79-2.49Q34.97-2.49 35.60-3.05Q36.22-3.60 36.26-4.81L36.26-4.81ZM44.94-14.22L44.94 0L41.52 0L41.52-14.22L44.94-14.22Z"></path></g></g></svg>